<svg width="154" height="19" viewBox="0 0 154 19" fill="none" xmlns="http://www.w3.org/2000/svg">
<path d="M0.032 9.624C0.032 7.992 0.4 6.528 1.136 5.232C1.872 3.92 2.872 2.896 4.136 2.16C5.416 1.424 6.832 1.056 8.384 1.056C10.208 1.056 11.8 1.496 13.16 2.376C14.52 3.256 15.512 4.504 16.136 6.12H13.52C13.056 5.112 12.384 4.336 11.504 3.792C10.64 3.248 9.6 2.976 8.384 2.976C7.216 2.976 6.168 3.248 5.24 3.792C4.312 4.336 3.584 5.112 3.056 6.12C2.528 7.112 2.264 8.28 2.264 9.624C2.264 10.952 2.528 12.12 3.056 13.128C3.584 14.12 4.312 14.888 5.24 15.432C6.168 15.976 7.216 16.248 8.384 16.248C9.6 16.248 10.64 15.984 11.504 15.456C12.384 14.912 13.056 14.136 13.52 13.128H16.136C15.512 14.728 14.52 15.968 13.16 16.848C11.8 17.712 10.208 18.144 8.384 18.144C6.832 18.144 5.416 17.784 4.136 17.064C2.872 16.328 1.872 15.312 1.136 14.016C0.4 12.72 0.032 11.256 0.032 9.624ZM25.1231 18.216C23.8911 18.216 22.7711 17.936 21.7631 17.376C20.7711 16.816 19.9871 16.024 19.4111 15C18.8511 13.96 18.5711 12.76 18.5711 11.4C18.5711 10.056 18.8591 8.872 19.4351 7.848C20.0271 6.808 20.8271 6.016 21.8351 5.472C22.8431 4.912 23.9711 4.632 25.2191 4.632C26.4671 4.632 27.5951 4.912 28.6031 5.472C29.6111 6.016 30.4031 6.8 30.9791 7.824C31.5711 8.848 31.8671 10.04 31.8671 11.4C31.8671 12.76 31.5631 13.96 30.9551 15C30.3631 16.024 29.5551 16.816 28.5311 17.376C27.5071 17.936 26.3711 18.216 25.1231 18.216ZM25.1231 16.296C25.9071 16.296 26.6431 16.112 27.3311 15.744C28.0191 15.376 28.5711 14.824 28.9871 14.088C29.4191 13.352 29.6351 12.456 29.6351 11.4C29.6351 10.344 29.4271 9.448 29.0111 8.712C28.5951 7.976 28.0511 7.432 27.3791 7.08C26.7071 6.712 25.9791 6.528 25.1951 6.528C24.3951 6.528 23.6591 6.712 22.9871 7.08C22.3311 7.432 21.8031 7.976 21.4031 8.712C21.0031 9.448 20.8031 10.344 20.8031 11.4C20.8031 12.472 20.9951 13.376 21.3791 14.112C21.7791 14.848 22.3071 15.4 22.9631 15.768C23.6191 16.12 24.3391 16.296 25.1231 16.296ZM50.5546 4.608C51.5786 4.608 52.4906 4.824 53.2906 5.256C54.0906 5.672 54.7226 6.304 55.1866 7.152C55.6506 8 55.8826 9.032 55.8826 10.248V18H53.7226V10.56C53.7226 9.248 53.3946 8.248 52.7386 7.56C52.0986 6.856 51.2266 6.504 50.1226 6.504C48.9866 6.504 48.0826 6.872 47.4106 7.608C46.7386 8.328 46.4026 9.376 46.4026 10.752V18H44.2426V10.56C44.2426 9.248 43.9146 8.248 43.2586 7.56C42.6186 6.856 41.7466 6.504 40.6426 6.504C39.5066 6.504 38.6026 6.872 37.9306 7.608C37.2586 8.328 36.9226 9.376 36.9226 10.752V18H34.7386V4.848H36.9226V6.744C37.3546 6.056 37.9306 5.528 38.6506 5.16C39.3866 4.792 40.1946 4.608 41.0746 4.608C42.1786 4.608 43.1546 4.856 44.0026 5.352C44.8506 5.848 45.4826 6.576 45.8986 7.536C46.2666 6.608 46.8746 5.888 47.7226 5.376C48.5706 4.864 49.5146 4.608 50.5546 4.608ZM75.2812 4.608C76.3052 4.608 77.2172 4.824 78.0172 5.256C78.8172 5.672 79.4492 6.304 79.9132 7.152C80.3772 8 80.6092 9.032 80.6092 10.248V18H78.4492V10.56C78.4492 9.248 78.1212 8.248 77.4652 7.56C76.8252 6.856 75.9532 6.504 74.8492 6.504C73.7132 6.504 72.8092 6.872 72.1372 7.608C71.4652 8.328 71.1292 9.376 71.1292 10.752V18H68.9692V10.56C68.9692 9.248 68.6412 8.248 67.9852 7.56C67.3452 6.856 66.4732 6.504 65.3692 6.504C64.2332 6.504 63.3292 6.872 62.6572 7.608C61.9852 8.328 61.6492 9.376 61.6492 10.752V18H59.4652V4.848H61.6492V6.744C62.0812 6.056 62.6572 5.528 63.3772 5.16C64.1132 4.792 64.9212 4.608 65.8012 4.608C66.9052 4.608 67.8812 4.856 68.7292 5.352C69.5772 5.848 70.2092 6.576 70.6252 7.536C70.9932 6.608 71.6012 5.888 72.4492 5.376C73.2972 4.864 74.2412 4.608 75.2812 4.608ZM83.3758 11.376C83.3758 10.032 83.6478 8.856 84.1918 7.848C84.7358 6.824 85.4798 6.032 86.4238 5.472C87.3838 4.912 88.4478 4.632 89.6158 4.632C90.7678 4.632 91.7678 4.88 92.6158 5.376C93.4638 5.872 94.0958 6.496 94.5118 7.248V4.848H96.7198V18H94.5118V15.552C94.0798 16.32 93.4318 16.96 92.5678 17.472C91.7198 17.968 90.7278 18.216 89.5918 18.216C88.4238 18.216 87.3678 17.928 86.4238 17.352C85.4798 16.776 84.7358 15.968 84.1918 14.928C83.6478 13.888 83.3758 12.704 83.3758 11.376ZM94.5118 11.4C94.5118 10.408 94.3118 9.544 93.9118 8.808C93.5118 8.072 92.9678 7.512 92.2798 7.128C91.6078 6.728 90.8638 6.528 90.0478 6.528C89.2318 6.528 88.4878 6.72 87.8158 7.104C87.1438 7.488 86.6078 8.048 86.2078 8.784C85.8078 9.52 85.6078 10.384 85.6078 11.376C85.6078 12.384 85.8078 13.264 86.2078 14.016C86.6078 14.752 87.1438 15.32 87.8158 15.72C88.4878 16.104 89.2318 16.296 90.0478 16.296C90.8638 16.296 91.6078 16.104 92.2798 15.72C92.9678 15.32 93.5118 14.752 93.9118 14.016C94.3118 13.264 94.5118 12.392 94.5118 11.4ZM106.819 4.608C108.419 4.608 109.715 5.096 110.707 6.072C111.699 7.032 112.195 8.424 112.195 10.248V18H110.035V10.56C110.035 9.248 109.707 8.248 109.051 7.56C108.395 6.856 107.499 6.504 106.363 6.504C105.211 6.504 104.291 6.864 103.603 7.584C102.931 8.304 102.595 9.352 102.595 10.728V18H100.411V4.848H102.595V6.72C103.027 6.048 103.611 5.528 104.347 5.16C105.099 4.792 105.923 4.608 106.819 4.608ZM114.946 11.376C114.946 10.032 115.218 8.856 115.762 7.848C116.306 6.824 117.05 6.032 117.994 5.472C118.954 4.912 120.026 4.632 121.21 4.632C122.234 4.632 123.186 4.872 124.066 5.352C124.946 5.816 125.618 6.432 126.082 7.2V0.24H128.29V18H126.082V15.528C125.65 16.312 125.01 16.96 124.162 17.472C123.314 17.968 122.322 18.216 121.186 18.216C120.018 18.216 118.954 17.928 117.994 17.352C117.05 16.776 116.306 15.968 115.762 14.928C115.218 13.888 114.946 12.704 114.946 11.376ZM126.082 11.4C126.082 10.408 125.882 9.544 125.482 8.808C125.082 8.072 124.538 7.512 123.85 7.128C123.178 6.728 122.434 6.528 121.618 6.528C120.802 6.528 120.058 6.72 119.386 7.104C118.714 7.488 118.178 8.048 117.778 8.784C117.378 9.52 117.178 10.384 117.178 11.376C117.178 12.384 117.378 13.264 117.778 14.016C118.178 14.752 118.714 15.32 119.386 15.72C120.058 16.104 120.802 16.296 121.618 16.296C122.434 16.296 123.178 16.104 123.85 15.72C124.538 15.32 125.082 14.752 125.482 14.016C125.882 13.264 126.082 12.392 126.082 11.4ZM143.981 10.92C143.981 11.336 143.957 11.776 143.909 12.24H133.397C133.477 13.536 133.917 14.552 134.717 15.288C135.533 16.008 136.517 16.368 137.669 16.368C138.613 16.368 139.397 16.152 140.021 15.72C140.661 15.272 141.109 14.68 141.365 13.944H143.717C143.365 15.208 142.661 16.24 141.605 17.04C140.549 17.824 139.237 18.216 137.669 18.216C136.421 18.216 135.301 17.936 134.309 17.376C133.333 16.816 132.565 16.024 132.005 15C131.445 13.96 131.165 12.76 131.165 11.4C131.165 10.04 131.437 8.848 131.981 7.824C132.525 6.8 133.285 6.016 134.261 5.472C135.253 4.912 136.389 4.632 137.669 4.632C138.917 4.632 140.021 4.904 140.981 5.448C141.941 5.992 142.677 6.744 143.189 7.704C143.717 8.648 143.981 9.72 143.981 10.92ZM141.725 10.464C141.725 9.632 141.541 8.92 141.173 8.328C140.805 7.72 140.301 7.264 139.661 6.96C139.037 6.64 138.341 6.48 137.573 6.48C136.469 6.48 135.525 6.832 134.741 7.536C133.973 8.24 133.533 9.216 133.421 10.464H141.725ZM149.048 6.984C149.432 6.232 149.976 5.648 150.68 5.232C151.4 4.816 152.272 4.608 153.296 4.608V6.864H152.72C150.272 6.864 149.048 8.192 149.048 10.848V18H146.864V4.848H149.048V6.984Z" fill="black"/>
</svg>
