<svg xmlns="http://www.w3.org/2000/svg" width="32" height="32" viewBox="0 0 32 32">
<g transform="translate(0 -1020.362)">
<path style="line-height:normal;text-indent:0;text-align:start;text-decoration-line:none;text-decoration-style:solid;text-decoration-color:#3379ff;text-transform:none;block-progression:tb;white-space:normal;isolation:auto;mix-blend-mode:normal;solid-color:#3370ff;solid-opacity:1" d="M 5.5 2 A 0.50005 0.50005 0 0 0 5 2.5 L 5 5 L 5 6 L 5 8 L 5 9 L 5 11 L 5 12 L 5 14 L 5 15 L 5 17 L 5 18 L 5 20 L 5 21 L 5 23 L 5 24 L 5 26 L 5 27 L 5 29.5 A 0.50005 0.50005 0 0 0 5.5 30 L 13.5 30 A 0.50005 0.50005 0 0 0 14 29.5 L 14 2.5 A 0.50005 0.50005 0 0 0 13.5 2 L 5.5 2 z M 20.992188 2 C 19.89283 2 18.992188 2.9007 18.992188 4 L 18.992188 6.4179688 A 0.50005 0.50005 0 0 0 18.992188 6.5820312 L 18.992188 22.5 A 0.50005 0.50005 0 0 0 19.044922 22.722656 L 22.544922 29.722656 A 0.50005 0.50005 0 0 0 23.439453 29.722656 L 26.939453 22.722656 A 0.50005 0.50005 0 0 0 26.992188 22.482422 L 26.992188 6.578125 A 0.50005 0.50005 0 0 0 26.992188 6.4179688 L 26.992188 4 C 26.992188 2.9007 26.091545 2 24.992188 2 L 20.992188 2 z M 6 3 L 13 3 L 13 29 L 6 29 L 6 27 L 9 27 L 9 26 L 6 26 L 6 24 L 10 24 L 10 23 L 6 23 L 6 21 L 9 21 L 9 20 L 6 20 L 6 18 L 10 18 L 10 17 L 6 17 L 6 15 L 9 15 L 9 14 L 6 14 L 6 12 L 10 12 L 10 11 L 6 11 L 6 9 L 9 9 L 9 8 L 6 8 L 6 6 L 10 6 L 10 5 L 6 5 L 6 3 z M 20.992188 3 L 24.992188 3 C 25.554848 3 25.992186 3.4374 25.992188 4 L 25.992188 6 L 19.992188 6 L 19.992188 4 C 19.992188 3.4374 20.429527 3 20.992188 3 z M 19.992188 7 L 25.992188 7 L 25.992188 22.142578 L 24.087891 22.785156 L 22.150391 21.130859 A 0.50005 0.50005 0 0 0 21.830078 21.009766 L 21.830078 21.011719 A 0.50005 0.50005 0 0 0 21.630859 21.048828 L 19.992188 21.744141 L 19.992188 7 z M 20.992188 8 L 20.992188 20 L 21.992188 20 L 21.992188 8 L 20.992188 8 z M 21.736328 22.091797 L 23.65625 23.732422 A 0.50005 0.50005 0 0 0 24.140625 23.824219 L 25.501953 23.363281 L 22.992188 28.382812 L 20.177734 22.753906 L 21.736328 22.091797 z " color="#3370ff" enable-background="accumulate" font-family="sans-serif" font-weight="400" overflow="visible"  fill="#3370ff" transform="translate(0 1020.362)"/>
</g>
</svg>