<svg xmlns="http://www.w3.org/2000/svg" xmlns:xlink="http://www.w3.org/1999/xlink" width="94" height="95" viewBox="0 0 94 95">
  <defs>
    <clipPath id="clip-path">
      <rect width="94" height="95" fill="none"/>
    </clipPath>
  </defs>
  <g id="Repeat_Grid_2" data-name="Repeat Grid 2" clip-path="url(#clip-path)">
    <g transform="translate(-1396 -3286)">
      <circle id="Ellipse_4" data-name="Ellipse 4" cx="1.5" cy="1.5" r="1.5" transform="translate(1396 3286)" fill="#3370ff"/>
    </g>
    <g transform="translate(-1386 -3286)">
      <circle id="Ellipse_4-2" data-name="Ellipse 4" cx="1.5" cy="1.5" r="1.5" transform="translate(1396 3286)" fill="#3370ff"/>
    </g>
    <g transform="translate(-1376 -3286)">
      <circle id="Ellipse_4-3" data-name="Ellipse 4" cx="1.5" cy="1.5" r="1.5" transform="translate(1396 3286)" fill="#3370ff"/>
    </g>
    <g transform="translate(-1366 -3286)">
      <circle id="Ellipse_4-4" data-name="Ellipse 4" cx="1.5" cy="1.5" r="1.5" transform="translate(1396 3286)" fill="#3370ff"/>
    </g>
    <g transform="translate(-1356 -3286)">
      <circle id="Ellipse_4-5" data-name="Ellipse 4" cx="1.5" cy="1.5" r="1.5" transform="translate(1396 3286)" fill="#3370ff"/>
    </g>
    <g transform="translate(-1346 -3286)">
      <circle id="Ellipse_4-6" data-name="Ellipse 4" cx="1.5" cy="1.5" r="1.5" transform="translate(1396 3286)" fill="#3370ff"/>
    </g>
    <g transform="translate(-1336 -3286)">
      <circle id="Ellipse_4-7" data-name="Ellipse 4" cx="1.5" cy="1.5" r="1.5" transform="translate(1396 3286)" fill="#3370ff"/>
    </g>
    <g transform="translate(-1326 -3286)">
      <circle id="Ellipse_4-8" data-name="Ellipse 4" cx="1.5" cy="1.5" r="1.5" transform="translate(1396 3286)" fill="#3370ff"/>
    </g>
    <g transform="translate(-1316 -3286)">
      <circle id="Ellipse_4-9" data-name="Ellipse 4" cx="1.5" cy="1.5" r="1.5" transform="translate(1396 3286)" fill="#3370ff"/>
    </g>
    <g transform="translate(-1306 -3286)">
      <circle id="Ellipse_4-10" data-name="Ellipse 4" cx="1.5" cy="1.5" r="1.5" transform="translate(1396 3286)" fill="#3370ff"/>
    </g>
    <g transform="translate(-1396 -3276)">
      <circle id="Ellipse_4-11" data-name="Ellipse 4" cx="1.5" cy="1.5" r="1.5" transform="translate(1396 3286)" fill="#3370ff"/>
    </g>
    <g transform="translate(-1386 -3276)">
      <circle id="Ellipse_4-12" data-name="Ellipse 4" cx="1.5" cy="1.5" r="1.5" transform="translate(1396 3286)" fill="#3370ff"/>
    </g>
    <g transform="translate(-1376 -3276)">
      <circle id="Ellipse_4-13" data-name="Ellipse 4" cx="1.5" cy="1.5" r="1.5" transform="translate(1396 3286)" fill="#3370ff"/>
    </g>
    <g transform="translate(-1366 -3276)">
      <circle id="Ellipse_4-14" data-name="Ellipse 4" cx="1.5" cy="1.5" r="1.5" transform="translate(1396 3286)" fill="#3370ff"/>
    </g>
    <g transform="translate(-1356 -3276)">
      <circle id="Ellipse_4-15" data-name="Ellipse 4" cx="1.5" cy="1.5" r="1.5" transform="translate(1396 3286)" fill="#3370ff"/>
    </g>
    <g transform="translate(-1346 -3276)">
      <circle id="Ellipse_4-16" data-name="Ellipse 4" cx="1.5" cy="1.5" r="1.5" transform="translate(1396 3286)" fill="#3370ff"/>
    </g>
    <g transform="translate(-1336 -3276)">
      <circle id="Ellipse_4-17" data-name="Ellipse 4" cx="1.5" cy="1.5" r="1.5" transform="translate(1396 3286)" fill="#3370ff"/>
    </g>
    <g transform="translate(-1326 -3276)">
      <circle id="Ellipse_4-18" data-name="Ellipse 4" cx="1.5" cy="1.5" r="1.5" transform="translate(1396 3286)" fill="#3370ff"/>
    </g>
    <g transform="translate(-1316 -3276)">
      <circle id="Ellipse_4-19" data-name="Ellipse 4" cx="1.5" cy="1.5" r="1.5" transform="translate(1396 3286)" fill="#3370ff"/>
    </g>
    <g transform="translate(-1306 -3276)">
      <circle id="Ellipse_4-20" data-name="Ellipse 4" cx="1.5" cy="1.5" r="1.5" transform="translate(1396 3286)" fill="#3370ff"/>
    </g>
    <g transform="translate(-1396 -3266)">
      <circle id="Ellipse_4-21" data-name="Ellipse 4" cx="1.5" cy="1.5" r="1.5" transform="translate(1396 3286)" fill="#3370ff"/>
    </g>
    <g transform="translate(-1386 -3266)">
      <circle id="Ellipse_4-22" data-name="Ellipse 4" cx="1.5" cy="1.5" r="1.5" transform="translate(1396 3286)" fill="#3370ff"/>
    </g>
    <g transform="translate(-1376 -3266)">
      <circle id="Ellipse_4-23" data-name="Ellipse 4" cx="1.5" cy="1.5" r="1.5" transform="translate(1396 3286)" fill="#3370ff"/>
    </g>
    <g transform="translate(-1366 -3266)">
      <circle id="Ellipse_4-24" data-name="Ellipse 4" cx="1.5" cy="1.5" r="1.5" transform="translate(1396 3286)" fill="#3370ff"/>
    </g>
    <g transform="translate(-1356 -3266)">
      <circle id="Ellipse_4-25" data-name="Ellipse 4" cx="1.5" cy="1.5" r="1.5" transform="translate(1396 3286)" fill="#3370ff"/>
    </g>
    <g transform="translate(-1346 -3266)">
      <circle id="Ellipse_4-26" data-name="Ellipse 4" cx="1.5" cy="1.5" r="1.5" transform="translate(1396 3286)" fill="#3370ff"/>
    </g>
    <g transform="translate(-1336 -3266)">
      <circle id="Ellipse_4-27" data-name="Ellipse 4" cx="1.5" cy="1.5" r="1.5" transform="translate(1396 3286)" fill="#3370ff"/>
    </g>
    <g transform="translate(-1326 -3266)">
      <circle id="Ellipse_4-28" data-name="Ellipse 4" cx="1.5" cy="1.5" r="1.5" transform="translate(1396 3286)" fill="#3370ff"/>
    </g>
    <g transform="translate(-1316 -3266)">
      <circle id="Ellipse_4-29" data-name="Ellipse 4" cx="1.5" cy="1.5" r="1.5" transform="translate(1396 3286)" fill="#3370ff"/>
    </g>
    <g transform="translate(-1306 -3266)">
      <circle id="Ellipse_4-30" data-name="Ellipse 4" cx="1.5" cy="1.5" r="1.5" transform="translate(1396 3286)" fill="#3370ff"/>
    </g>
    <g transform="translate(-1396 -3256)">
      <circle id="Ellipse_4-31" data-name="Ellipse 4" cx="1.5" cy="1.5" r="1.5" transform="translate(1396 3286)" fill="#3370ff"/>
    </g>
    <g transform="translate(-1386 -3256)">
      <circle id="Ellipse_4-32" data-name="Ellipse 4" cx="1.5" cy="1.5" r="1.5" transform="translate(1396 3286)" fill="#3370ff"/>
    </g>
    <g transform="translate(-1376 -3256)">
      <circle id="Ellipse_4-33" data-name="Ellipse 4" cx="1.5" cy="1.5" r="1.5" transform="translate(1396 3286)" fill="#3370ff"/>
    </g>
    <g transform="translate(-1366 -3256)">
      <circle id="Ellipse_4-34" data-name="Ellipse 4" cx="1.5" cy="1.5" r="1.5" transform="translate(1396 3286)" fill="#3370ff"/>
    </g>
    <g transform="translate(-1356 -3256)">
      <circle id="Ellipse_4-35" data-name="Ellipse 4" cx="1.5" cy="1.5" r="1.5" transform="translate(1396 3286)" fill="#3370ff"/>
    </g>
    <g transform="translate(-1346 -3256)">
      <circle id="Ellipse_4-36" data-name="Ellipse 4" cx="1.5" cy="1.5" r="1.5" transform="translate(1396 3286)" fill="#3370ff"/>
    </g>
    <g transform="translate(-1336 -3256)">
      <circle id="Ellipse_4-37" data-name="Ellipse 4" cx="1.5" cy="1.5" r="1.5" transform="translate(1396 3286)" fill="#3370ff"/>
    </g>
    <g transform="translate(-1326 -3256)">
      <circle id="Ellipse_4-38" data-name="Ellipse 4" cx="1.5" cy="1.5" r="1.5" transform="translate(1396 3286)" fill="#3370ff"/>
    </g>
    <g transform="translate(-1316 -3256)">
      <circle id="Ellipse_4-39" data-name="Ellipse 4" cx="1.5" cy="1.5" r="1.5" transform="translate(1396 3286)" fill="#3370ff"/>
    </g>
    <g transform="translate(-1306 -3256)">
      <circle id="Ellipse_4-40" data-name="Ellipse 4" cx="1.5" cy="1.5" r="1.5" transform="translate(1396 3286)" fill="#3370ff"/>
    </g>
    <g transform="translate(-1396 -3246)">
      <circle id="Ellipse_4-41" data-name="Ellipse 4" cx="1.5" cy="1.5" r="1.5" transform="translate(1396 3286)" fill="#3370ff"/>
    </g>
    <g transform="translate(-1386 -3246)">
      <circle id="Ellipse_4-42" data-name="Ellipse 4" cx="1.5" cy="1.5" r="1.5" transform="translate(1396 3286)" fill="#3370ff"/>
    </g>
    <g transform="translate(-1376 -3246)">
      <circle id="Ellipse_4-43" data-name="Ellipse 4" cx="1.5" cy="1.5" r="1.5" transform="translate(1396 3286)" fill="#3370ff"/>
    </g>
    <g transform="translate(-1366 -3246)">
      <circle id="Ellipse_4-44" data-name="Ellipse 4" cx="1.5" cy="1.5" r="1.5" transform="translate(1396 3286)" fill="#3370ff"/>
    </g>
    <g transform="translate(-1356 -3246)">
      <circle id="Ellipse_4-45" data-name="Ellipse 4" cx="1.5" cy="1.5" r="1.5" transform="translate(1396 3286)" fill="#3370ff"/>
    </g>
    <g transform="translate(-1346 -3246)">
      <circle id="Ellipse_4-46" data-name="Ellipse 4" cx="1.5" cy="1.5" r="1.5" transform="translate(1396 3286)" fill="#3370ff"/>
    </g>
    <g transform="translate(-1336 -3246)">
      <circle id="Ellipse_4-47" data-name="Ellipse 4" cx="1.5" cy="1.5" r="1.5" transform="translate(1396 3286)" fill="#3370ff"/>
    </g>
    <g transform="translate(-1326 -3246)">
      <circle id="Ellipse_4-48" data-name="Ellipse 4" cx="1.5" cy="1.5" r="1.5" transform="translate(1396 3286)" fill="#3370ff"/>
    </g>
    <g transform="translate(-1316 -3246)">
      <circle id="Ellipse_4-49" data-name="Ellipse 4" cx="1.5" cy="1.5" r="1.5" transform="translate(1396 3286)" fill="#3370ff"/>
    </g>
    <g transform="translate(-1306 -3246)">
      <circle id="Ellipse_4-50" data-name="Ellipse 4" cx="1.5" cy="1.5" r="1.5" transform="translate(1396 3286)" fill="#3370ff"/>
    </g>
    <g transform="translate(-1396 -3236)">
      <circle id="Ellipse_4-51" data-name="Ellipse 4" cx="1.5" cy="1.5" r="1.5" transform="translate(1396 3286)" fill="#3370ff"/>
    </g>
    <g transform="translate(-1386 -3236)">
      <circle id="Ellipse_4-52" data-name="Ellipse 4" cx="1.5" cy="1.5" r="1.5" transform="translate(1396 3286)" fill="#3370ff"/>
    </g>
    <g transform="translate(-1376 -3236)">
      <circle id="Ellipse_4-53" data-name="Ellipse 4" cx="1.5" cy="1.5" r="1.5" transform="translate(1396 3286)" fill="#3370ff"/>
    </g>
    <g transform="translate(-1366 -3236)">
      <circle id="Ellipse_4-54" data-name="Ellipse 4" cx="1.5" cy="1.5" r="1.5" transform="translate(1396 3286)" fill="#3370ff"/>
    </g>
    <g transform="translate(-1356 -3236)">
      <circle id="Ellipse_4-55" data-name="Ellipse 4" cx="1.5" cy="1.5" r="1.5" transform="translate(1396 3286)" fill="#3370ff"/>
    </g>
    <g transform="translate(-1346 -3236)">
      <circle id="Ellipse_4-56" data-name="Ellipse 4" cx="1.5" cy="1.5" r="1.5" transform="translate(1396 3286)" fill="#3370ff"/>
    </g>
    <g transform="translate(-1336 -3236)">
      <circle id="Ellipse_4-57" data-name="Ellipse 4" cx="1.5" cy="1.5" r="1.5" transform="translate(1396 3286)" fill="#3370ff"/>
    </g>
    <g transform="translate(-1326 -3236)">
      <circle id="Ellipse_4-58" data-name="Ellipse 4" cx="1.5" cy="1.5" r="1.5" transform="translate(1396 3286)" fill="#3370ff"/>
    </g>
    <g transform="translate(-1316 -3236)">
      <circle id="Ellipse_4-59" data-name="Ellipse 4" cx="1.5" cy="1.5" r="1.5" transform="translate(1396 3286)" fill="#3370ff"/>
    </g>
    <g transform="translate(-1306 -3236)">
      <circle id="Ellipse_4-60" data-name="Ellipse 4" cx="1.5" cy="1.5" r="1.5" transform="translate(1396 3286)" fill="#3370ff"/>
    </g>
    <g transform="translate(-1396 -3226)">
      <circle id="Ellipse_4-61" data-name="Ellipse 4" cx="1.5" cy="1.5" r="1.5" transform="translate(1396 3286)" fill="#3370ff"/>
    </g>
    <g transform="translate(-1386 -3226)">
      <circle id="Ellipse_4-62" data-name="Ellipse 4" cx="1.5" cy="1.5" r="1.5" transform="translate(1396 3286)" fill="#3370ff"/>
    </g>
    <g transform="translate(-1376 -3226)">
      <circle id="Ellipse_4-63" data-name="Ellipse 4" cx="1.5" cy="1.5" r="1.5" transform="translate(1396 3286)" fill="#3370ff"/>
    </g>
    <g transform="translate(-1366 -3226)">
      <circle id="Ellipse_4-64" data-name="Ellipse 4" cx="1.5" cy="1.5" r="1.5" transform="translate(1396 3286)" fill="#3370ff"/>
    </g>
    <g transform="translate(-1356 -3226)">
      <circle id="Ellipse_4-65" data-name="Ellipse 4" cx="1.5" cy="1.5" r="1.5" transform="translate(1396 3286)" fill="#3370ff"/>
    </g>
    <g transform="translate(-1346 -3226)">
      <circle id="Ellipse_4-66" data-name="Ellipse 4" cx="1.5" cy="1.5" r="1.5" transform="translate(1396 3286)" fill="#3370ff"/>
    </g>
    <g transform="translate(-1336 -3226)">
      <circle id="Ellipse_4-67" data-name="Ellipse 4" cx="1.5" cy="1.5" r="1.5" transform="translate(1396 3286)" fill="#3370ff"/>
    </g>
    <g transform="translate(-1326 -3226)">
      <circle id="Ellipse_4-68" data-name="Ellipse 4" cx="1.5" cy="1.5" r="1.5" transform="translate(1396 3286)" fill="#3370ff"/>
    </g>
    <g transform="translate(-1316 -3226)">
      <circle id="Ellipse_4-69" data-name="Ellipse 4" cx="1.5" cy="1.5" r="1.5" transform="translate(1396 3286)" fill="#3370ff"/>
    </g>
    <g transform="translate(-1306 -3226)">
      <circle id="Ellipse_4-70" data-name="Ellipse 4" cx="1.5" cy="1.5" r="1.5" transform="translate(1396 3286)" fill="#3370ff"/>
    </g>
    <g transform="translate(-1396 -3216)">
      <circle id="Ellipse_4-71" data-name="Ellipse 4" cx="1.5" cy="1.5" r="1.5" transform="translate(1396 3286)" fill="#3370ff"/>
    </g>
    <g transform="translate(-1386 -3216)">
      <circle id="Ellipse_4-72" data-name="Ellipse 4" cx="1.5" cy="1.5" r="1.5" transform="translate(1396 3286)" fill="#3370ff"/>
    </g>
    <g transform="translate(-1376 -3216)">
      <circle id="Ellipse_4-73" data-name="Ellipse 4" cx="1.5" cy="1.5" r="1.5" transform="translate(1396 3286)" fill="#3370ff"/>
    </g>
    <g transform="translate(-1366 -3216)">
      <circle id="Ellipse_4-74" data-name="Ellipse 4" cx="1.5" cy="1.5" r="1.5" transform="translate(1396 3286)" fill="#3370ff"/>
    </g>
    <g transform="translate(-1356 -3216)">
      <circle id="Ellipse_4-75" data-name="Ellipse 4" cx="1.5" cy="1.5" r="1.5" transform="translate(1396 3286)" fill="#3370ff"/>
    </g>
    <g transform="translate(-1346 -3216)">
      <circle id="Ellipse_4-76" data-name="Ellipse 4" cx="1.5" cy="1.5" r="1.5" transform="translate(1396 3286)" fill="#3370ff"/>
    </g>
    <g transform="translate(-1336 -3216)">
      <circle id="Ellipse_4-77" data-name="Ellipse 4" cx="1.5" cy="1.5" r="1.5" transform="translate(1396 3286)" fill="#3370ff"/>
    </g>
    <g transform="translate(-1326 -3216)">
      <circle id="Ellipse_4-78" data-name="Ellipse 4" cx="1.5" cy="1.5" r="1.5" transform="translate(1396 3286)" fill="#3370ff"/>
    </g>
    <g transform="translate(-1316 -3216)">
      <circle id="Ellipse_4-79" data-name="Ellipse 4" cx="1.5" cy="1.5" r="1.5" transform="translate(1396 3286)" fill="#3370ff"/>
    </g>
    <g transform="translate(-1306 -3216)">
      <circle id="Ellipse_4-80" data-name="Ellipse 4" cx="1.5" cy="1.5" r="1.5" transform="translate(1396 3286)" fill="#3370ff"/>
    </g>
    <g transform="translate(-1396 -3206)">
      <circle id="Ellipse_4-81" data-name="Ellipse 4" cx="1.5" cy="1.5" r="1.5" transform="translate(1396 3286)" fill="#3370ff"/>
    </g>
    <g transform="translate(-1386 -3206)">
      <circle id="Ellipse_4-82" data-name="Ellipse 4" cx="1.5" cy="1.5" r="1.5" transform="translate(1396 3286)" fill="#3370ff"/>
    </g>
    <g transform="translate(-1376 -3206)">
      <circle id="Ellipse_4-83" data-name="Ellipse 4" cx="1.5" cy="1.5" r="1.5" transform="translate(1396 3286)" fill="#3370ff"/>
    </g>
    <g transform="translate(-1366 -3206)">
      <circle id="Ellipse_4-84" data-name="Ellipse 4" cx="1.5" cy="1.5" r="1.5" transform="translate(1396 3286)" fill="#3370ff"/>
    </g>
    <g transform="translate(-1356 -3206)">
      <circle id="Ellipse_4-85" data-name="Ellipse 4" cx="1.5" cy="1.5" r="1.5" transform="translate(1396 3286)" fill="#3370ff"/>
    </g>
    <g transform="translate(-1346 -3206)">
      <circle id="Ellipse_4-86" data-name="Ellipse 4" cx="1.5" cy="1.5" r="1.5" transform="translate(1396 3286)" fill="#3370ff"/>
    </g>
    <g transform="translate(-1336 -3206)">
      <circle id="Ellipse_4-87" data-name="Ellipse 4" cx="1.5" cy="1.5" r="1.5" transform="translate(1396 3286)" fill="#3370ff"/>
    </g>
    <g transform="translate(-1326 -3206)">
      <circle id="Ellipse_4-88" data-name="Ellipse 4" cx="1.5" cy="1.5" r="1.5" transform="translate(1396 3286)" fill="#3370ff"/>
    </g>
    <g transform="translate(-1316 -3206)">
      <circle id="Ellipse_4-89" data-name="Ellipse 4" cx="1.5" cy="1.5" r="1.5" transform="translate(1396 3286)" fill="#3370ff"/>
    </g>
    <g transform="translate(-1306 -3206)">
      <circle id="Ellipse_4-90" data-name="Ellipse 4" cx="1.5" cy="1.5" r="1.5" transform="translate(1396 3286)" fill="#3370ff"/>
    </g>
    <g transform="translate(-1396 -3196)">
      <circle id="Ellipse_4-91" data-name="Ellipse 4" cx="1.5" cy="1.5" r="1.5" transform="translate(1396 3286)" fill="#3370ff"/>
    </g>
    <g transform="translate(-1386 -3196)">
      <circle id="Ellipse_4-92" data-name="Ellipse 4" cx="1.5" cy="1.5" r="1.5" transform="translate(1396 3286)" fill="#3370ff"/>
    </g>
    <g transform="translate(-1376 -3196)">
      <circle id="Ellipse_4-93" data-name="Ellipse 4" cx="1.5" cy="1.5" r="1.5" transform="translate(1396 3286)" fill="#3370ff"/>
    </g>
    <g transform="translate(-1366 -3196)">
      <circle id="Ellipse_4-94" data-name="Ellipse 4" cx="1.5" cy="1.5" r="1.5" transform="translate(1396 3286)" fill="#3370ff"/>
    </g>
    <g transform="translate(-1356 -3196)">
      <circle id="Ellipse_4-95" data-name="Ellipse 4" cx="1.5" cy="1.5" r="1.5" transform="translate(1396 3286)" fill="#3370ff"/>
    </g>
    <g transform="translate(-1346 -3196)">
      <circle id="Ellipse_4-96" data-name="Ellipse 4" cx="1.5" cy="1.5" r="1.5" transform="translate(1396 3286)" fill="#3370ff"/>
    </g>
    <g transform="translate(-1336 -3196)">
      <circle id="Ellipse_4-97" data-name="Ellipse 4" cx="1.5" cy="1.5" r="1.5" transform="translate(1396 3286)" fill="#3370ff"/>
    </g>
    <g transform="translate(-1326 -3196)">
      <circle id="Ellipse_4-98" data-name="Ellipse 4" cx="1.5" cy="1.5" r="1.5" transform="translate(1396 3286)" fill="#3370ff"/>
    </g>
    <g transform="translate(-1316 -3196)">
      <circle id="Ellipse_4-99" data-name="Ellipse 4" cx="1.5" cy="1.5" r="1.5" transform="translate(1396 3286)" fill="#3370ff"/>
    </g>
    <g transform="translate(-1306 -3196)">
      <circle id="Ellipse_4-100" data-name="Ellipse 4" cx="1.5" cy="1.5" r="1.5" transform="translate(1396 3286)" fill="#3370ff"/>
    </g>
  </g>
</svg>
