<svg width="270" height="319" viewBox="0 0 270 319" fill="none" xmlns="http://www.w3.org/2000/svg">
<path d="M248.015 230.044H196.957V218.739C211.926 209.517 224.691 197.047 234.312 182.153C246.638 163.072 253.154 140.933 253.154 118.13C253.154 52.993 200.16 0 135.022 0C69.884 0 16.891 52.993 16.891 118.131C16.891 140.934 23.407 163.072 35.734 182.154C45.355 197.048 58.121 209.517 73.089 218.739V230.044H22.029C10.983 230.044 2.02899 238.998 2.02899 250.044C2.02899 261.09 10.983 270.044 22.029 270.044H93.089C104.135 270.044 113.089 261.09 113.089 250.044V206.87C113.089 199.138 108.633 192.1 101.645 188.793C74.458 175.925 56.891 148.189 56.891 118.131C56.891 75.05 91.94 40 135.022 40C178.104 40 213.154 75.05 213.154 118.131C213.154 148.188 195.587 175.925 168.4 188.793C161.413 192.101 156.957 199.139 156.957 206.87V250.044C156.957 261.09 165.911 270.044 176.957 270.044H248.015C259.061 270.044 268.015 261.09 268.015 250.044C268.015 238.998 259.061 230.044 248.015 230.044Z" fill="#597F74"/>
<rect y="287" width="270" height="32" rx="16" fill="#597F74"/>
</svg>
