<svg xmlns="http://www.w3.org/2000/svg" width="478.98" height="478.98" viewBox="0 0 478.98 478.98">
  <g id="snowflake" transform="translate(-505.806 -266.02)">
    <g id="Group_1" data-name="Group 1" transform="translate(-30 -70)">
      <rect id="Rectangle_1" data-name="Rectangle 1" width="57" height="121" transform="translate(747 398)" fill="#f55094"/>
      <rect id="Rectangle_2" data-name="Rectangle 2" width="57" height="87" transform="matrix(0.819, 0.574, -0.574, 0.819, 796.901, 336.02)" fill="#f55094"/>
      <rect id="Rectangle_3" data-name="Rectangle 3" width="57" height="87" transform="matrix(0.819, -0.574, 0.574, 0.819, 707, 368.714)" fill="#f55094"/>
    </g>
    <g id="Group_2" data-name="Group 2" transform="translate(1520.592 1081.02) rotate(180)">
      <rect id="Rectangle_1-2" data-name="Rectangle 1" width="57" height="121" transform="translate(747 398)" fill="#15e3ba"/>
      <rect id="Rectangle_2-2" data-name="Rectangle 2" width="57" height="87" transform="matrix(0.819, 0.574, -0.574, 0.819, 796.901, 336.02)" fill="#15e3ba"/>
      <rect id="Rectangle_3-2" data-name="Rectangle 3" width="57" height="87" transform="matrix(0.819, -0.574, 0.574, 0.819, 707, 368.714)" fill="#15e3ba"/>
    </g>
    <g id="Group_3" data-name="Group 3" transform="translate(1320.806 -268.786) rotate(90)">
      <rect id="Rectangle_1-3" data-name="Rectangle 1" width="57" height="121" transform="translate(747 398)" fill="#3370ff"/>
      <rect id="Rectangle_2-3" data-name="Rectangle 2" width="57" height="87" transform="matrix(0.819, 0.574, -0.574, 0.819, 796.901, 336.02)" fill="#3370ff"/>
      <rect id="Rectangle_3-3" data-name="Rectangle 3" width="57" height="87" transform="matrix(0.819, -0.574, 0.574, 0.819, 707, 368.714)" fill="#3370ff"/>
    </g>
    <g id="Group_7" data-name="Group 7" transform="translate(169.786 1279.806) rotate(-90)">
      <rect id="Rectangle_1-4" data-name="Rectangle 1" width="57" height="121" transform="translate(747 398)" fill="#6b53fd"/>
      <rect id="Rectangle_2-4" data-name="Rectangle 2" width="57" height="87" transform="matrix(0.819, 0.574, -0.574, 0.819, 796.901, 336.02)" fill="#6b53fd"/>
      <rect id="Rectangle_3-4" data-name="Rectangle 3" width="57" height="87" transform="matrix(0.819, -0.574, 0.574, 0.819, 707, 368.714)" fill="#6b53fd"/>
    </g>
    <g id="Group_8" data-name="Group 8" transform="translate(-218.216 648.432) rotate(-45)">
      <rect id="Rectangle_1-5" data-name="Rectangle 1" width="41" height="121" transform="translate(763 398)" fill="#f55094"/>
      <rect id="Rectangle_2-5" data-name="Rectangle 2" width="38.392" height="87" transform="matrix(0.819, 0.574, -0.574, 0.819, 812.144, 346.693)" fill="#f55094"/>
      <rect id="Rectangle_3-5" data-name="Rectangle 3" width="40" height="87" transform="matrix(0.819, -0.574, 0.574, 0.819, 720.218, 363.913)" fill="#f55094"/>
    </g>
    <g id="Group_9" data-name="Group 9" transform="translate(600.874 -457.35) rotate(45)">
      <rect id="Rectangle_1-6" data-name="Rectangle 1" width="41" height="121" transform="translate(763 398)" fill="#3370ff"/>
      <rect id="Rectangle_2-6" data-name="Rectangle 2" width="38.392" height="87" transform="matrix(0.819, 0.574, -0.574, 0.819, 812.144, 346.693)" fill="#3370ff"/>
      <rect id="Rectangle_3-6" data-name="Rectangle 3" width="40" height="87" transform="matrix(0.819, -0.574, 0.574, 0.819, 720.218, 363.913)" fill="#3370ff"/>
    </g>
    <g id="Group_10" data-name="Group 10" transform="translate(1707.655 361.741) rotate(135)">
      <rect id="Rectangle_1-7" data-name="Rectangle 1" width="41" height="121" transform="translate(763 398)" fill="#15e3ba"/>
      <rect id="Rectangle_2-7" data-name="Rectangle 2" width="38.392" height="87" transform="matrix(0.819, 0.574, -0.574, 0.819, 812.144, 346.693)" fill="#15e3ba"/>
      <rect id="Rectangle_3-7" data-name="Rectangle 3" width="40" height="87" transform="matrix(0.819, -0.574, 0.574, 0.819, 720.218, 363.913)" fill="#15e3ba"/>
    </g>
    <g id="Group_11" data-name="Group 11" transform="translate(890.564 1467.522) rotate(-135)">
      <rect id="Rectangle_1-8" data-name="Rectangle 1" width="41" height="121" transform="translate(763 398)" fill="#6b53fd"/>
      <rect id="Rectangle_2-8" data-name="Rectangle 2" width="38.392" height="87" transform="matrix(0.819, 0.574, -0.574, 0.819, 812.144, 346.693)" fill="#6b53fd"/>
      <rect id="Rectangle_3-8" data-name="Rectangle 3" width="40" height="87" transform="matrix(0.819, -0.574, 0.574, 0.819, 720.218, 363.913)" fill="#6b53fd"/>
    </g>
  </g>
</svg>
