<svg id="SvgjsSvg1001" width="288" height="288" xmlns="http://www.w3.org/2000/svg" version="1.1" xmlns:xlink="http://www.w3.org/1999/xlink" xmlns:svgjs="http://svgjs.com/svgjs"><defs id="SvgjsDefs1002"></defs><g id="SvgjsG1008" transform="matrix(1,0,0,1,0,0)"><svg xmlns="http://www.w3.org/2000/svg" width="288" height="288" enable-background="new 0 0 550 550" viewBox="0 0 550 550"><path d="M194.964 295.455l39.545-45.85c3.607-4.183 3.141-10.497-1.042-14.104-4.183-3.606-10.497-3.141-14.104 1.041l-45.169 52.371c-3.233 3.748-3.237 9.298-.009 13.052l45.169 52.526c1.978 2.3 4.774 3.479 7.586 3.479 2.309 0 4.628-.795 6.516-2.418 4.188-3.601 4.663-9.915 1.062-14.103L194.964 295.455zM329.899 236.554c-3.602-4.188-9.917-4.662-14.102-1.062-4.188 3.601-4.663 9.915-1.062 14.103l39.554 45.995-39.545 45.851c-3.607 4.183-3.141 10.497 1.042 14.104 1.889 1.63 4.213 2.428 6.527 2.428 2.808 0 5.599-1.176 7.577-3.469l45.17-52.372c3.233-3.749 3.237-9.298.009-13.052L329.899 236.554zM295.138 222.841c-5.292-1.582-10.864 1.423-12.447 6.714l-37.754 126.204c-1.583 5.291 1.423 10.864 6.714 12.446.956.286 1.921.423 2.87.423 4.304 0 8.28-2.802 9.577-7.137l37.754-126.204C303.436 229.996 300.429 224.423 295.138 222.841z" fill="#3370FF" class="color000 svgShape"></path><path d="M516,87H34C20.215,87,9,98.215,9,112v327c0,13.785,11.215,25,25,25h482c13.785,0,25-11.215,25-25V112C541,98.215,529.785,87,516,87z M34,107h482c2.757,0,5,2.243,5,5v38H29v-38C29,109.243,31.243,107,34,107z M516,444H34c-2.757,0-5-2.243-5-5V170h492v269C521,441.757,518.757,444,516,444z" fill="#3370FF" class="color000 svgShape"></path><circle cx="78.208" cy="127.812" r="10" fill="#3370FF" class="color000 svgShape"></circle><circle cx="114.208" cy="127.812" r="10" fill="#3370FF" class="color000 svgShape"></circle><circle cx="150.208" cy="127.812" r="10" fill="#3370FF" class="color000 svgShape"></circle></svg></g></svg>